<?xml version="1.0" encoding="UTF-8" standalone="no"?>
<!DOCTYPE svg PUBLIC "-//W3C//DTD SVG 1.1//EN"
 "http://www.w3.org/Graphics/SVG/1.1/DTD/svg11.dtd">
<!-- Generated by graphviz version 2.40.1 (20161225.0304)
 -->
<!-- Title: G Pages: 1 -->
<svg width="374pt" height="719pt"
 viewBox="0.00 0.00 374.00 719.00" xmlns="http://www.w3.org/2000/svg" xmlns:xlink="http://www.w3.org/1999/xlink">
<g id="graph0" class="graph" transform="scale(1 1) rotate(0) translate(4 715)">
<title>G</title>
<polygon fill="#ffffff" stroke="transparent" points="-4,4 -4,-715 370,-715 370,4 -4,4"/>
<!-- 139884509697696 -->
<g id="node1" class="node">
<title>139884509697696</title>
<polygon fill="none" stroke="#000000" points="37.5,-664.5 37.5,-710.5 328.5,-710.5 328.5,-664.5 37.5,-664.5"/>
<text text-anchor="middle" x="100" y="-683.8" font-family="Times,serif" font-size="14.00" fill="#000000">input_2: InputLayer</text>
<polyline fill="none" stroke="#000000" points="162.5,-664.5 162.5,-710.5 "/>
<text text-anchor="middle" x="190" y="-695.3" font-family="Times,serif" font-size="14.00" fill="#000000">input:</text>
<polyline fill="none" stroke="#000000" points="162.5,-687.5 217.5,-687.5 "/>
<text text-anchor="middle" x="190" y="-672.3" font-family="Times,serif" font-size="14.00" fill="#000000">output:</text>
<polyline fill="none" stroke="#000000" points="217.5,-664.5 217.5,-710.5 "/>
<text text-anchor="middle" x="273" y="-695.3" font-family="Times,serif" font-size="14.00" fill="#000000">(None, 60, 64, 8)</text>
<polyline fill="none" stroke="#000000" points="217.5,-687.5 328.5,-687.5 "/>
<text text-anchor="middle" x="273" y="-672.3" font-family="Times,serif" font-size="14.00" fill="#000000">(None, 60, 64, 8)</text>
</g>
<!-- 139884509754704 -->
<g id="node2" class="node">
<title>139884509754704</title>
<polygon fill="none" stroke="#000000" points="35,-581.5 35,-627.5 331,-627.5 331,-581.5 35,-581.5"/>
<text text-anchor="middle" x="96.5" y="-600.8" font-family="Times,serif" font-size="14.00" fill="#000000">conv2d_4: Conv2D</text>
<polyline fill="none" stroke="#000000" points="158,-581.5 158,-627.5 "/>
<text text-anchor="middle" x="185.5" y="-612.3" font-family="Times,serif" font-size="14.00" fill="#000000">input:</text>
<polyline fill="none" stroke="#000000" points="158,-604.5 213,-604.5 "/>
<text text-anchor="middle" x="185.5" y="-589.3" font-family="Times,serif" font-size="14.00" fill="#000000">output:</text>
<polyline fill="none" stroke="#000000" points="213,-581.5 213,-627.5 "/>
<text text-anchor="middle" x="272" y="-612.3" font-family="Times,serif" font-size="14.00" fill="#000000">(None, 60, 64, 8)</text>
<polyline fill="none" stroke="#000000" points="213,-604.5 331,-604.5 "/>
<text text-anchor="middle" x="272" y="-589.3" font-family="Times,serif" font-size="14.00" fill="#000000">(None, 15, 16, 32)</text>
</g>
<!-- 139884509697696&#45;&gt;139884509754704 -->
<g id="edge1" class="edge">
<title>139884509697696&#45;&gt;139884509754704</title>
<path fill="none" stroke="#000000" d="M183,-664.3799C183,-656.1745 183,-646.7679 183,-637.8786"/>
<polygon fill="#000000" stroke="#000000" points="186.5001,-637.784 183,-627.784 179.5001,-637.784 186.5001,-637.784"/>
</g>
<!-- 139884507179776 -->
<g id="node3" class="node">
<title>139884507179776</title>
<polygon fill="none" stroke="#000000" points="35,-498.5 35,-544.5 331,-544.5 331,-498.5 35,-498.5"/>
<text text-anchor="middle" x="96.5" y="-517.8" font-family="Times,serif" font-size="14.00" fill="#000000">conv2d_5: Conv2D</text>
<polyline fill="none" stroke="#000000" points="158,-498.5 158,-544.5 "/>
<text text-anchor="middle" x="185.5" y="-529.3" font-family="Times,serif" font-size="14.00" fill="#000000">input:</text>
<polyline fill="none" stroke="#000000" points="158,-521.5 213,-521.5 "/>
<text text-anchor="middle" x="185.5" y="-506.3" font-family="Times,serif" font-size="14.00" fill="#000000">output:</text>
<polyline fill="none" stroke="#000000" points="213,-498.5 213,-544.5 "/>
<text text-anchor="middle" x="272" y="-529.3" font-family="Times,serif" font-size="14.00" fill="#000000">(None, 15, 16, 32)</text>
<polyline fill="none" stroke="#000000" points="213,-521.5 331,-521.5 "/>
<text text-anchor="middle" x="272" y="-506.3" font-family="Times,serif" font-size="14.00" fill="#000000">(None, 8, 8, 64)</text>
</g>
<!-- 139884509754704&#45;&gt;139884507179776 -->
<g id="edge2" class="edge">
<title>139884509754704&#45;&gt;139884507179776</title>
<path fill="none" stroke="#000000" d="M183,-581.3799C183,-573.1745 183,-563.7679 183,-554.8786"/>
<polygon fill="#000000" stroke="#000000" points="186.5001,-554.784 183,-544.784 179.5001,-554.784 186.5001,-554.784"/>
</g>
<!-- 139884507225280 -->
<g id="node4" class="node">
<title>139884507225280</title>
<polygon fill="none" stroke="#000000" points="42,-415.5 42,-461.5 324,-461.5 324,-415.5 42,-415.5"/>
<text text-anchor="middle" x="103.5" y="-434.8" font-family="Times,serif" font-size="14.00" fill="#000000">conv2d_6: Conv2D</text>
<polyline fill="none" stroke="#000000" points="165,-415.5 165,-461.5 "/>
<text text-anchor="middle" x="192.5" y="-446.3" font-family="Times,serif" font-size="14.00" fill="#000000">input:</text>
<polyline fill="none" stroke="#000000" points="165,-438.5 220,-438.5 "/>
<text text-anchor="middle" x="192.5" y="-423.3" font-family="Times,serif" font-size="14.00" fill="#000000">output:</text>
<polyline fill="none" stroke="#000000" points="220,-415.5 220,-461.5 "/>
<text text-anchor="middle" x="272" y="-446.3" font-family="Times,serif" font-size="14.00" fill="#000000">(None, 8, 8, 64)</text>
<polyline fill="none" stroke="#000000" points="220,-438.5 324,-438.5 "/>
<text text-anchor="middle" x="272" y="-423.3" font-family="Times,serif" font-size="14.00" fill="#000000">(None, 8, 8, 64)</text>
</g>
<!-- 139884507179776&#45;&gt;139884507225280 -->
<g id="edge3" class="edge">
<title>139884507179776&#45;&gt;139884507225280</title>
<path fill="none" stroke="#000000" d="M183,-498.3799C183,-490.1745 183,-480.7679 183,-471.8786"/>
<polygon fill="#000000" stroke="#000000" points="186.5001,-471.784 183,-461.784 179.5001,-471.784 186.5001,-471.784"/>
</g>
<!-- 139884507286440 -->
<g id="node5" class="node">
<title>139884507286440</title>
<polygon fill="none" stroke="#000000" points="0,-332.5 0,-378.5 366,-378.5 366,-332.5 0,-332.5"/>
<text text-anchor="middle" x="103.5" y="-351.8" font-family="Times,serif" font-size="14.00" fill="#000000">max_pooling2d_2: MaxPooling2D</text>
<polyline fill="none" stroke="#000000" points="207,-332.5 207,-378.5 "/>
<text text-anchor="middle" x="234.5" y="-363.3" font-family="Times,serif" font-size="14.00" fill="#000000">input:</text>
<polyline fill="none" stroke="#000000" points="207,-355.5 262,-355.5 "/>
<text text-anchor="middle" x="234.5" y="-340.3" font-family="Times,serif" font-size="14.00" fill="#000000">output:</text>
<polyline fill="none" stroke="#000000" points="262,-332.5 262,-378.5 "/>
<text text-anchor="middle" x="314" y="-363.3" font-family="Times,serif" font-size="14.00" fill="#000000">(None, 8, 8, 64)</text>
<polyline fill="none" stroke="#000000" points="262,-355.5 366,-355.5 "/>
<text text-anchor="middle" x="314" y="-340.3" font-family="Times,serif" font-size="14.00" fill="#000000">(None, 4, 4, 64)</text>
</g>
<!-- 139884507225280&#45;&gt;139884507286440 -->
<g id="edge4" class="edge">
<title>139884507225280&#45;&gt;139884507286440</title>
<path fill="none" stroke="#000000" d="M183,-415.3799C183,-407.1745 183,-397.7679 183,-388.8786"/>
<polygon fill="#000000" stroke="#000000" points="186.5001,-388.784 183,-378.784 179.5001,-388.784 186.5001,-388.784"/>
</g>
<!-- 139884507383008 -->
<g id="node6" class="node">
<title>139884507383008</title>
<polygon fill="none" stroke="#000000" points="48.5,-249.5 48.5,-295.5 317.5,-295.5 317.5,-249.5 48.5,-249.5"/>
<text text-anchor="middle" x="103.5" y="-268.8" font-family="Times,serif" font-size="14.00" fill="#000000">flatten_2: Flatten</text>
<polyline fill="none" stroke="#000000" points="158.5,-249.5 158.5,-295.5 "/>
<text text-anchor="middle" x="186" y="-280.3" font-family="Times,serif" font-size="14.00" fill="#000000">input:</text>
<polyline fill="none" stroke="#000000" points="158.5,-272.5 213.5,-272.5 "/>
<text text-anchor="middle" x="186" y="-257.3" font-family="Times,serif" font-size="14.00" fill="#000000">output:</text>
<polyline fill="none" stroke="#000000" points="213.5,-249.5 213.5,-295.5 "/>
<text text-anchor="middle" x="265.5" y="-280.3" font-family="Times,serif" font-size="14.00" fill="#000000">(None, 4, 4, 64)</text>
<polyline fill="none" stroke="#000000" points="213.5,-272.5 317.5,-272.5 "/>
<text text-anchor="middle" x="265.5" y="-257.3" font-family="Times,serif" font-size="14.00" fill="#000000">(None, 1024)</text>
</g>
<!-- 139884507286440&#45;&gt;139884507383008 -->
<g id="edge5" class="edge">
<title>139884507286440&#45;&gt;139884507383008</title>
<path fill="none" stroke="#000000" d="M183,-332.3799C183,-324.1745 183,-314.7679 183,-305.8786"/>
<polygon fill="#000000" stroke="#000000" points="186.5001,-305.784 183,-295.784 179.5001,-305.784 186.5001,-305.784"/>
</g>
<!-- 139884507385528 -->
<g id="node7" class="node">
<title>139884507385528</title>
<polygon fill="none" stroke="#000000" points="60,-166.5 60,-212.5 306,-212.5 306,-166.5 60,-166.5"/>
<text text-anchor="middle" x="111" y="-185.8" font-family="Times,serif" font-size="14.00" fill="#000000">dense_4: Dense</text>
<polyline fill="none" stroke="#000000" points="162,-166.5 162,-212.5 "/>
<text text-anchor="middle" x="189.5" y="-197.3" font-family="Times,serif" font-size="14.00" fill="#000000">input:</text>
<polyline fill="none" stroke="#000000" points="162,-189.5 217,-189.5 "/>
<text text-anchor="middle" x="189.5" y="-174.3" font-family="Times,serif" font-size="14.00" fill="#000000">output:</text>
<polyline fill="none" stroke="#000000" points="217,-166.5 217,-212.5 "/>
<text text-anchor="middle" x="261.5" y="-197.3" font-family="Times,serif" font-size="14.00" fill="#000000">(None, 1024)</text>
<polyline fill="none" stroke="#000000" points="217,-189.5 306,-189.5 "/>
<text text-anchor="middle" x="261.5" y="-174.3" font-family="Times,serif" font-size="14.00" fill="#000000">(None, 128)</text>
</g>
<!-- 139884507383008&#45;&gt;139884507385528 -->
<g id="edge6" class="edge">
<title>139884507383008&#45;&gt;139884507385528</title>
<path fill="none" stroke="#000000" d="M183,-249.3799C183,-241.1745 183,-231.7679 183,-222.8786"/>
<polygon fill="#000000" stroke="#000000" points="186.5001,-222.784 183,-212.784 179.5001,-222.784 186.5001,-222.784"/>
</g>
<!-- 139884506942376 -->
<g id="node8" class="node">
<title>139884506942376</title>
<polygon fill="none" stroke="#000000" points="63,-83.5 63,-129.5 303,-129.5 303,-83.5 63,-83.5"/>
<text text-anchor="middle" x="114" y="-102.8" font-family="Times,serif" font-size="14.00" fill="#000000">dense_5: Dense</text>
<polyline fill="none" stroke="#000000" points="165,-83.5 165,-129.5 "/>
<text text-anchor="middle" x="192.5" y="-114.3" font-family="Times,serif" font-size="14.00" fill="#000000">input:</text>
<polyline fill="none" stroke="#000000" points="165,-106.5 220,-106.5 "/>
<text text-anchor="middle" x="192.5" y="-91.3" font-family="Times,serif" font-size="14.00" fill="#000000">output:</text>
<polyline fill="none" stroke="#000000" points="220,-83.5 220,-129.5 "/>
<text text-anchor="middle" x="261.5" y="-114.3" font-family="Times,serif" font-size="14.00" fill="#000000">(None, 128)</text>
<polyline fill="none" stroke="#000000" points="220,-106.5 303,-106.5 "/>
<text text-anchor="middle" x="261.5" y="-91.3" font-family="Times,serif" font-size="14.00" fill="#000000">(None, 128)</text>
</g>
<!-- 139884507385528&#45;&gt;139884506942376 -->
<g id="edge7" class="edge">
<title>139884507385528&#45;&gt;139884506942376</title>
<path fill="none" stroke="#000000" d="M183,-166.3799C183,-158.1745 183,-148.7679 183,-139.8786"/>
<polygon fill="#000000" stroke="#000000" points="186.5001,-139.784 183,-129.784 179.5001,-139.784 186.5001,-139.784"/>
</g>
<!-- 139884506998712 -->
<g id="node9" class="node">
<title>139884506998712</title>
<polygon fill="none" stroke="#000000" points="63,-.5 63,-46.5 303,-46.5 303,-.5 63,-.5"/>
<text text-anchor="middle" x="114" y="-19.8" font-family="Times,serif" font-size="14.00" fill="#000000">dense_6: Dense</text>
<polyline fill="none" stroke="#000000" points="165,-.5 165,-46.5 "/>
<text text-anchor="middle" x="192.5" y="-31.3" font-family="Times,serif" font-size="14.00" fill="#000000">input:</text>
<polyline fill="none" stroke="#000000" points="165,-23.5 220,-23.5 "/>
<text text-anchor="middle" x="192.5" y="-8.3" font-family="Times,serif" font-size="14.00" fill="#000000">output:</text>
<polyline fill="none" stroke="#000000" points="220,-.5 220,-46.5 "/>
<text text-anchor="middle" x="261.5" y="-31.3" font-family="Times,serif" font-size="14.00" fill="#000000">(None, 128)</text>
<polyline fill="none" stroke="#000000" points="220,-23.5 303,-23.5 "/>
<text text-anchor="middle" x="261.5" y="-8.3" font-family="Times,serif" font-size="14.00" fill="#000000">(None, 6)</text>
</g>
<!-- 139884506942376&#45;&gt;139884506998712 -->
<g id="edge8" class="edge">
<title>139884506942376&#45;&gt;139884506998712</title>
<path fill="none" stroke="#000000" d="M183,-83.3799C183,-75.1745 183,-65.7679 183,-56.8786"/>
<polygon fill="#000000" stroke="#000000" points="186.5001,-56.784 183,-46.784 179.5001,-56.784 186.5001,-56.784"/>
</g>
</g>
</svg>
