<?xml version="1.0" encoding="UTF-8" standalone="no"?>
<!DOCTYPE svg PUBLIC "-//W3C//DTD SVG 1.1//EN"
 "http://www.w3.org/Graphics/SVG/1.1/DTD/svg11.dtd">
<!-- Generated by graphviz version 2.38.0 (20140413.2041)
 -->
<!-- Title: G Pages: 1 -->
<svg width="306pt" height="553pt"
 viewBox="0.00 0.00 306.00 553.00" xmlns="http://www.w3.org/2000/svg" xmlns:xlink="http://www.w3.org/1999/xlink">
<g id="graph0" class="graph" transform="scale(1 1) rotate(0) translate(4 549)">
<title>G</title>
<polygon fill="white" stroke="none" points="-4,4 -4,-549 302,-549 302,4 -4,4"/>
<!-- 139877186949072 -->
<g id="node1" class="node"><title>139877186949072</title>
<polygon fill="none" stroke="black" points="-2.84217e-14,-498.5 -2.84217e-14,-544.5 298,-544.5 298,-498.5 -2.84217e-14,-498.5"/>
<text text-anchor="middle" x="62.5" y="-517.8" font-family="Times,serif" font-size="14.00">input_2: InputLayer</text>
<polyline fill="none" stroke="black" points="125,-498.5 125,-544.5 "/>
<text text-anchor="middle" x="152.5" y="-529.3" font-family="Times,serif" font-size="14.00">input:</text>
<polyline fill="none" stroke="black" points="125,-521.5 180,-521.5 "/>
<text text-anchor="middle" x="152.5" y="-506.3" font-family="Times,serif" font-size="14.00">output:</text>
<polyline fill="none" stroke="black" points="180,-498.5 180,-544.5 "/>
<text text-anchor="middle" x="239" y="-529.3" font-family="Times,serif" font-size="14.00">(None, 60, 64, 16)</text>
<polyline fill="none" stroke="black" points="180,-521.5 298,-521.5 "/>
<text text-anchor="middle" x="239" y="-506.3" font-family="Times,serif" font-size="14.00">(None, 60, 64, 16)</text>
</g>
<!-- 139877186491616 -->
<g id="node2" class="node"><title>139877186491616</title>
<polygon fill="none" stroke="black" points="1,-415.5 1,-461.5 297,-461.5 297,-415.5 1,-415.5"/>
<text text-anchor="middle" x="62.5" y="-434.8" font-family="Times,serif" font-size="14.00">conv2d_4: Conv2D</text>
<polyline fill="none" stroke="black" points="124,-415.5 124,-461.5 "/>
<text text-anchor="middle" x="151.5" y="-446.3" font-family="Times,serif" font-size="14.00">input:</text>
<polyline fill="none" stroke="black" points="124,-438.5 179,-438.5 "/>
<text text-anchor="middle" x="151.5" y="-423.3" font-family="Times,serif" font-size="14.00">output:</text>
<polyline fill="none" stroke="black" points="179,-415.5 179,-461.5 "/>
<text text-anchor="middle" x="238" y="-446.3" font-family="Times,serif" font-size="14.00">(None, 60, 64, 16)</text>
<polyline fill="none" stroke="black" points="179,-438.5 297,-438.5 "/>
<text text-anchor="middle" x="238" y="-423.3" font-family="Times,serif" font-size="14.00">(None, 14, 15, 32)</text>
</g>
<!-- 139877186949072&#45;&gt;139877186491616 -->
<g id="edge1" class="edge"><title>139877186949072&#45;&gt;139877186491616</title>
<path fill="none" stroke="black" d="M149,-498.366C149,-490.152 149,-480.658 149,-471.725"/>
<polygon fill="black" stroke="black" points="152.5,-471.607 149,-461.607 145.5,-471.607 152.5,-471.607"/>
</g>
<!-- 139877186672736 -->
<g id="node3" class="node"><title>139877186672736</title>
<polygon fill="none" stroke="black" points="1,-332.5 1,-378.5 297,-378.5 297,-332.5 1,-332.5"/>
<text text-anchor="middle" x="62.5" y="-351.8" font-family="Times,serif" font-size="14.00">conv2d_5: Conv2D</text>
<polyline fill="none" stroke="black" points="124,-332.5 124,-378.5 "/>
<text text-anchor="middle" x="151.5" y="-363.3" font-family="Times,serif" font-size="14.00">input:</text>
<polyline fill="none" stroke="black" points="124,-355.5 179,-355.5 "/>
<text text-anchor="middle" x="151.5" y="-340.3" font-family="Times,serif" font-size="14.00">output:</text>
<polyline fill="none" stroke="black" points="179,-332.5 179,-378.5 "/>
<text text-anchor="middle" x="238" y="-363.3" font-family="Times,serif" font-size="14.00">(None, 14, 15, 32)</text>
<polyline fill="none" stroke="black" points="179,-355.5 297,-355.5 "/>
<text text-anchor="middle" x="238" y="-340.3" font-family="Times,serif" font-size="14.00">(None, 6, 6, 64)</text>
</g>
<!-- 139877186491616&#45;&gt;139877186672736 -->
<g id="edge2" class="edge"><title>139877186491616&#45;&gt;139877186672736</title>
<path fill="none" stroke="black" d="M149,-415.366C149,-407.152 149,-397.658 149,-388.725"/>
<polygon fill="black" stroke="black" points="152.5,-388.607 149,-378.607 145.5,-388.607 152.5,-388.607"/>
</g>
<!-- 139877183924600 -->
<g id="node4" class="node"><title>139877183924600</title>
<polygon fill="none" stroke="black" points="8,-249.5 8,-295.5 290,-295.5 290,-249.5 8,-249.5"/>
<text text-anchor="middle" x="69.5" y="-268.8" font-family="Times,serif" font-size="14.00">conv2d_6: Conv2D</text>
<polyline fill="none" stroke="black" points="131,-249.5 131,-295.5 "/>
<text text-anchor="middle" x="158.5" y="-280.3" font-family="Times,serif" font-size="14.00">input:</text>
<polyline fill="none" stroke="black" points="131,-272.5 186,-272.5 "/>
<text text-anchor="middle" x="158.5" y="-257.3" font-family="Times,serif" font-size="14.00">output:</text>
<polyline fill="none" stroke="black" points="186,-249.5 186,-295.5 "/>
<text text-anchor="middle" x="238" y="-280.3" font-family="Times,serif" font-size="14.00">(None, 6, 6, 64)</text>
<polyline fill="none" stroke="black" points="186,-272.5 290,-272.5 "/>
<text text-anchor="middle" x="238" y="-257.3" font-family="Times,serif" font-size="14.00">(None, 4, 4, 64)</text>
</g>
<!-- 139877186672736&#45;&gt;139877183924600 -->
<g id="edge3" class="edge"><title>139877186672736&#45;&gt;139877183924600</title>
<path fill="none" stroke="black" d="M149,-332.366C149,-324.152 149,-314.658 149,-305.725"/>
<polygon fill="black" stroke="black" points="152.5,-305.607 149,-295.607 145.5,-305.607 152.5,-305.607"/>
</g>
<!-- 139877184046248 -->
<g id="node5" class="node"><title>139877184046248</title>
<polygon fill="none" stroke="black" points="14.5,-166.5 14.5,-212.5 283.5,-212.5 283.5,-166.5 14.5,-166.5"/>
<text text-anchor="middle" x="69.5" y="-185.8" font-family="Times,serif" font-size="14.00">flatten_2: Flatten</text>
<polyline fill="none" stroke="black" points="124.5,-166.5 124.5,-212.5 "/>
<text text-anchor="middle" x="152" y="-197.3" font-family="Times,serif" font-size="14.00">input:</text>
<polyline fill="none" stroke="black" points="124.5,-189.5 179.5,-189.5 "/>
<text text-anchor="middle" x="152" y="-174.3" font-family="Times,serif" font-size="14.00">output:</text>
<polyline fill="none" stroke="black" points="179.5,-166.5 179.5,-212.5 "/>
<text text-anchor="middle" x="231.5" y="-197.3" font-family="Times,serif" font-size="14.00">(None, 4, 4, 64)</text>
<polyline fill="none" stroke="black" points="179.5,-189.5 283.5,-189.5 "/>
<text text-anchor="middle" x="231.5" y="-174.3" font-family="Times,serif" font-size="14.00">(None, 1024)</text>
</g>
<!-- 139877183924600&#45;&gt;139877184046248 -->
<g id="edge4" class="edge"><title>139877183924600&#45;&gt;139877184046248</title>
<path fill="none" stroke="black" d="M149,-249.366C149,-241.152 149,-231.658 149,-222.725"/>
<polygon fill="black" stroke="black" points="152.5,-222.607 149,-212.607 145.5,-222.607 152.5,-222.607"/>
</g>
<!-- 139877184111840 -->
<g id="node6" class="node"><title>139877184111840</title>
<polygon fill="none" stroke="black" points="26,-83.5 26,-129.5 272,-129.5 272,-83.5 26,-83.5"/>
<text text-anchor="middle" x="77" y="-102.8" font-family="Times,serif" font-size="14.00">dense_3: Dense</text>
<polyline fill="none" stroke="black" points="128,-83.5 128,-129.5 "/>
<text text-anchor="middle" x="155.5" y="-114.3" font-family="Times,serif" font-size="14.00">input:</text>
<polyline fill="none" stroke="black" points="128,-106.5 183,-106.5 "/>
<text text-anchor="middle" x="155.5" y="-91.3" font-family="Times,serif" font-size="14.00">output:</text>
<polyline fill="none" stroke="black" points="183,-83.5 183,-129.5 "/>
<text text-anchor="middle" x="227.5" y="-114.3" font-family="Times,serif" font-size="14.00">(None, 1024)</text>
<polyline fill="none" stroke="black" points="183,-106.5 272,-106.5 "/>
<text text-anchor="middle" x="227.5" y="-91.3" font-family="Times,serif" font-size="14.00">(None, 512)</text>
</g>
<!-- 139877184046248&#45;&gt;139877184111840 -->
<g id="edge5" class="edge"><title>139877184046248&#45;&gt;139877184111840</title>
<path fill="none" stroke="black" d="M149,-166.366C149,-158.152 149,-148.658 149,-139.725"/>
<polygon fill="black" stroke="black" points="152.5,-139.607 149,-129.607 145.5,-139.607 152.5,-139.607"/>
</g>
<!-- 139877183721032 -->
<g id="node7" class="node"><title>139877183721032</title>
<polygon fill="none" stroke="black" points="29,-0.5 29,-46.5 269,-46.5 269,-0.5 29,-0.5"/>
<text text-anchor="middle" x="80" y="-19.8" font-family="Times,serif" font-size="14.00">dense_4: Dense</text>
<polyline fill="none" stroke="black" points="131,-0.5 131,-46.5 "/>
<text text-anchor="middle" x="158.5" y="-31.3" font-family="Times,serif" font-size="14.00">input:</text>
<polyline fill="none" stroke="black" points="131,-23.5 186,-23.5 "/>
<text text-anchor="middle" x="158.5" y="-8.3" font-family="Times,serif" font-size="14.00">output:</text>
<polyline fill="none" stroke="black" points="186,-0.5 186,-46.5 "/>
<text text-anchor="middle" x="227.5" y="-31.3" font-family="Times,serif" font-size="14.00">(None, 512)</text>
<polyline fill="none" stroke="black" points="186,-23.5 269,-23.5 "/>
<text text-anchor="middle" x="227.5" y="-8.3" font-family="Times,serif" font-size="14.00">(None, 6)</text>
</g>
<!-- 139877184111840&#45;&gt;139877183721032 -->
<g id="edge6" class="edge"><title>139877184111840&#45;&gt;139877183721032</title>
<path fill="none" stroke="black" d="M149,-83.3664C149,-75.1516 149,-65.6579 149,-56.7252"/>
<polygon fill="black" stroke="black" points="152.5,-56.6068 149,-46.6068 145.5,-56.6069 152.5,-56.6068"/>
</g>
</g>
</svg>
