<?xml version="1.0" encoding="UTF-8" standalone="no"?>
<!DOCTYPE svg PUBLIC "-//W3C//DTD SVG 1.1//EN"
 "http://www.w3.org/Graphics/SVG/1.1/DTD/svg11.dtd">
<!-- Generated by graphviz version 2.38.0 (20140413.2041)
 -->
<!-- Title: G Pages: 1 -->
<svg width="374pt" height="719pt"
 viewBox="0.00 0.00 374.00 719.00" xmlns="http://www.w3.org/2000/svg" xmlns:xlink="http://www.w3.org/1999/xlink">
<g id="graph0" class="graph" transform="scale(1 1) rotate(0) translate(4 715)">
<title>G</title>
<polygon fill="white" stroke="none" points="-4,4 -4,-715 370,-715 370,4 -4,4"/>
<!-- 140619145893984 -->
<g id="node1" class="node"><title>140619145893984</title>
<polygon fill="none" stroke="black" points="37.5,-664.5 37.5,-710.5 328.5,-710.5 328.5,-664.5 37.5,-664.5"/>
<text text-anchor="middle" x="100" y="-683.8" font-family="Times,serif" font-size="14.00">input_1: InputLayer</text>
<polyline fill="none" stroke="black" points="162.5,-664.5 162.5,-710.5 "/>
<text text-anchor="middle" x="190" y="-695.3" font-family="Times,serif" font-size="14.00">input:</text>
<polyline fill="none" stroke="black" points="162.5,-687.5 217.5,-687.5 "/>
<text text-anchor="middle" x="190" y="-672.3" font-family="Times,serif" font-size="14.00">output:</text>
<polyline fill="none" stroke="black" points="217.5,-664.5 217.5,-710.5 "/>
<text text-anchor="middle" x="273" y="-695.3" font-family="Times,serif" font-size="14.00">(None, 60, 64, 8)</text>
<polyline fill="none" stroke="black" points="217.5,-687.5 328.5,-687.5 "/>
<text text-anchor="middle" x="273" y="-672.3" font-family="Times,serif" font-size="14.00">(None, 60, 64, 8)</text>
</g>
<!-- 140619145895160 -->
<g id="node2" class="node"><title>140619145895160</title>
<polygon fill="none" stroke="black" points="35,-581.5 35,-627.5 331,-627.5 331,-581.5 35,-581.5"/>
<text text-anchor="middle" x="96.5" y="-600.8" font-family="Times,serif" font-size="14.00">conv2d_1: Conv2D</text>
<polyline fill="none" stroke="black" points="158,-581.5 158,-627.5 "/>
<text text-anchor="middle" x="185.5" y="-612.3" font-family="Times,serif" font-size="14.00">input:</text>
<polyline fill="none" stroke="black" points="158,-604.5 213,-604.5 "/>
<text text-anchor="middle" x="185.5" y="-589.3" font-family="Times,serif" font-size="14.00">output:</text>
<polyline fill="none" stroke="black" points="213,-581.5 213,-627.5 "/>
<text text-anchor="middle" x="272" y="-612.3" font-family="Times,serif" font-size="14.00">(None, 60, 64, 8)</text>
<polyline fill="none" stroke="black" points="213,-604.5 331,-604.5 "/>
<text text-anchor="middle" x="272" y="-589.3" font-family="Times,serif" font-size="14.00">(None, 15, 16, 32)</text>
</g>
<!-- 140619145893984&#45;&gt;140619145895160 -->
<g id="edge1" class="edge"><title>140619145893984&#45;&gt;140619145895160</title>
<path fill="none" stroke="black" d="M183,-664.366C183,-656.152 183,-646.658 183,-637.725"/>
<polygon fill="black" stroke="black" points="186.5,-637.607 183,-627.607 179.5,-637.607 186.5,-637.607"/>
</g>
<!-- 140619145894264 -->
<g id="node3" class="node"><title>140619145894264</title>
<polygon fill="none" stroke="black" points="35,-498.5 35,-544.5 331,-544.5 331,-498.5 35,-498.5"/>
<text text-anchor="middle" x="96.5" y="-517.8" font-family="Times,serif" font-size="14.00">conv2d_2: Conv2D</text>
<polyline fill="none" stroke="black" points="158,-498.5 158,-544.5 "/>
<text text-anchor="middle" x="185.5" y="-529.3" font-family="Times,serif" font-size="14.00">input:</text>
<polyline fill="none" stroke="black" points="158,-521.5 213,-521.5 "/>
<text text-anchor="middle" x="185.5" y="-506.3" font-family="Times,serif" font-size="14.00">output:</text>
<polyline fill="none" stroke="black" points="213,-498.5 213,-544.5 "/>
<text text-anchor="middle" x="272" y="-529.3" font-family="Times,serif" font-size="14.00">(None, 15, 16, 32)</text>
<polyline fill="none" stroke="black" points="213,-521.5 331,-521.5 "/>
<text text-anchor="middle" x="272" y="-506.3" font-family="Times,serif" font-size="14.00">(None, 8, 8, 64)</text>
</g>
<!-- 140619145895160&#45;&gt;140619145894264 -->
<g id="edge2" class="edge"><title>140619145895160&#45;&gt;140619145894264</title>
<path fill="none" stroke="black" d="M183,-581.366C183,-573.152 183,-563.658 183,-554.725"/>
<polygon fill="black" stroke="black" points="186.5,-554.607 183,-544.607 179.5,-554.607 186.5,-554.607"/>
</g>
<!-- 140619145895384 -->
<g id="node4" class="node"><title>140619145895384</title>
<polygon fill="none" stroke="black" points="42,-415.5 42,-461.5 324,-461.5 324,-415.5 42,-415.5"/>
<text text-anchor="middle" x="103.5" y="-434.8" font-family="Times,serif" font-size="14.00">conv2d_3: Conv2D</text>
<polyline fill="none" stroke="black" points="165,-415.5 165,-461.5 "/>
<text text-anchor="middle" x="192.5" y="-446.3" font-family="Times,serif" font-size="14.00">input:</text>
<polyline fill="none" stroke="black" points="165,-438.5 220,-438.5 "/>
<text text-anchor="middle" x="192.5" y="-423.3" font-family="Times,serif" font-size="14.00">output:</text>
<polyline fill="none" stroke="black" points="220,-415.5 220,-461.5 "/>
<text text-anchor="middle" x="272" y="-446.3" font-family="Times,serif" font-size="14.00">(None, 8, 8, 64)</text>
<polyline fill="none" stroke="black" points="220,-438.5 324,-438.5 "/>
<text text-anchor="middle" x="272" y="-423.3" font-family="Times,serif" font-size="14.00">(None, 8, 8, 64)</text>
</g>
<!-- 140619145894264&#45;&gt;140619145895384 -->
<g id="edge3" class="edge"><title>140619145894264&#45;&gt;140619145895384</title>
<path fill="none" stroke="black" d="M183,-498.366C183,-490.152 183,-480.658 183,-471.725"/>
<polygon fill="black" stroke="black" points="186.5,-471.607 183,-461.607 179.5,-471.607 186.5,-471.607"/>
</g>
<!-- 140619145546944 -->
<g id="node5" class="node"><title>140619145546944</title>
<polygon fill="none" stroke="black" points="0,-332.5 0,-378.5 366,-378.5 366,-332.5 0,-332.5"/>
<text text-anchor="middle" x="103.5" y="-351.8" font-family="Times,serif" font-size="14.00">max_pooling2d_1: MaxPooling2D</text>
<polyline fill="none" stroke="black" points="207,-332.5 207,-378.5 "/>
<text text-anchor="middle" x="234.5" y="-363.3" font-family="Times,serif" font-size="14.00">input:</text>
<polyline fill="none" stroke="black" points="207,-355.5 262,-355.5 "/>
<text text-anchor="middle" x="234.5" y="-340.3" font-family="Times,serif" font-size="14.00">output:</text>
<polyline fill="none" stroke="black" points="262,-332.5 262,-378.5 "/>
<text text-anchor="middle" x="314" y="-363.3" font-family="Times,serif" font-size="14.00">(None, 8, 8, 64)</text>
<polyline fill="none" stroke="black" points="262,-355.5 366,-355.5 "/>
<text text-anchor="middle" x="314" y="-340.3" font-family="Times,serif" font-size="14.00">(None, 4, 4, 64)</text>
</g>
<!-- 140619145895384&#45;&gt;140619145546944 -->
<g id="edge4" class="edge"><title>140619145895384&#45;&gt;140619145546944</title>
<path fill="none" stroke="black" d="M183,-415.366C183,-407.152 183,-397.658 183,-388.725"/>
<polygon fill="black" stroke="black" points="186.5,-388.607 183,-378.607 179.5,-388.607 186.5,-388.607"/>
</g>
<!-- 140619145691376 -->
<g id="node6" class="node"><title>140619145691376</title>
<polygon fill="none" stroke="black" points="48.5,-249.5 48.5,-295.5 317.5,-295.5 317.5,-249.5 48.5,-249.5"/>
<text text-anchor="middle" x="103.5" y="-268.8" font-family="Times,serif" font-size="14.00">flatten_1: Flatten</text>
<polyline fill="none" stroke="black" points="158.5,-249.5 158.5,-295.5 "/>
<text text-anchor="middle" x="186" y="-280.3" font-family="Times,serif" font-size="14.00">input:</text>
<polyline fill="none" stroke="black" points="158.5,-272.5 213.5,-272.5 "/>
<text text-anchor="middle" x="186" y="-257.3" font-family="Times,serif" font-size="14.00">output:</text>
<polyline fill="none" stroke="black" points="213.5,-249.5 213.5,-295.5 "/>
<text text-anchor="middle" x="265.5" y="-280.3" font-family="Times,serif" font-size="14.00">(None, 4, 4, 64)</text>
<polyline fill="none" stroke="black" points="213.5,-272.5 317.5,-272.5 "/>
<text text-anchor="middle" x="265.5" y="-257.3" font-family="Times,serif" font-size="14.00">(None, 1024)</text>
</g>
<!-- 140619145546944&#45;&gt;140619145691376 -->
<g id="edge5" class="edge"><title>140619145546944&#45;&gt;140619145691376</title>
<path fill="none" stroke="black" d="M183,-332.366C183,-324.152 183,-314.658 183,-305.725"/>
<polygon fill="black" stroke="black" points="186.5,-305.607 183,-295.607 179.5,-305.607 186.5,-305.607"/>
</g>
<!-- 140619145303152 -->
<g id="node7" class="node"><title>140619145303152</title>
<polygon fill="none" stroke="black" points="60,-166.5 60,-212.5 306,-212.5 306,-166.5 60,-166.5"/>
<text text-anchor="middle" x="111" y="-185.8" font-family="Times,serif" font-size="14.00">dense_1: Dense</text>
<polyline fill="none" stroke="black" points="162,-166.5 162,-212.5 "/>
<text text-anchor="middle" x="189.5" y="-197.3" font-family="Times,serif" font-size="14.00">input:</text>
<polyline fill="none" stroke="black" points="162,-189.5 217,-189.5 "/>
<text text-anchor="middle" x="189.5" y="-174.3" font-family="Times,serif" font-size="14.00">output:</text>
<polyline fill="none" stroke="black" points="217,-166.5 217,-212.5 "/>
<text text-anchor="middle" x="261.5" y="-197.3" font-family="Times,serif" font-size="14.00">(None, 1024)</text>
<polyline fill="none" stroke="black" points="217,-189.5 306,-189.5 "/>
<text text-anchor="middle" x="261.5" y="-174.3" font-family="Times,serif" font-size="14.00">(None, 128)</text>
</g>
<!-- 140619145691376&#45;&gt;140619145303152 -->
<g id="edge6" class="edge"><title>140619145691376&#45;&gt;140619145303152</title>
<path fill="none" stroke="black" d="M183,-249.366C183,-241.152 183,-231.658 183,-222.725"/>
<polygon fill="black" stroke="black" points="186.5,-222.607 183,-212.607 179.5,-222.607 186.5,-222.607"/>
</g>
<!-- 140619145414584 -->
<g id="node8" class="node"><title>140619145414584</title>
<polygon fill="none" stroke="black" points="63,-83.5 63,-129.5 303,-129.5 303,-83.5 63,-83.5"/>
<text text-anchor="middle" x="114" y="-102.8" font-family="Times,serif" font-size="14.00">dense_2: Dense</text>
<polyline fill="none" stroke="black" points="165,-83.5 165,-129.5 "/>
<text text-anchor="middle" x="192.5" y="-114.3" font-family="Times,serif" font-size="14.00">input:</text>
<polyline fill="none" stroke="black" points="165,-106.5 220,-106.5 "/>
<text text-anchor="middle" x="192.5" y="-91.3" font-family="Times,serif" font-size="14.00">output:</text>
<polyline fill="none" stroke="black" points="220,-83.5 220,-129.5 "/>
<text text-anchor="middle" x="261.5" y="-114.3" font-family="Times,serif" font-size="14.00">(None, 128)</text>
<polyline fill="none" stroke="black" points="220,-106.5 303,-106.5 "/>
<text text-anchor="middle" x="261.5" y="-91.3" font-family="Times,serif" font-size="14.00">(None, 128)</text>
</g>
<!-- 140619145303152&#45;&gt;140619145414584 -->
<g id="edge7" class="edge"><title>140619145303152&#45;&gt;140619145414584</title>
<path fill="none" stroke="black" d="M183,-166.366C183,-158.152 183,-148.658 183,-139.725"/>
<polygon fill="black" stroke="black" points="186.5,-139.607 183,-129.607 179.5,-139.607 186.5,-139.607"/>
</g>
<!-- 140619144962512 -->
<g id="node9" class="node"><title>140619144962512</title>
<polygon fill="none" stroke="black" points="63,-0.5 63,-46.5 303,-46.5 303,-0.5 63,-0.5"/>
<text text-anchor="middle" x="114" y="-19.8" font-family="Times,serif" font-size="14.00">dense_3: Dense</text>
<polyline fill="none" stroke="black" points="165,-0.5 165,-46.5 "/>
<text text-anchor="middle" x="192.5" y="-31.3" font-family="Times,serif" font-size="14.00">input:</text>
<polyline fill="none" stroke="black" points="165,-23.5 220,-23.5 "/>
<text text-anchor="middle" x="192.5" y="-8.3" font-family="Times,serif" font-size="14.00">output:</text>
<polyline fill="none" stroke="black" points="220,-0.5 220,-46.5 "/>
<text text-anchor="middle" x="261.5" y="-31.3" font-family="Times,serif" font-size="14.00">(None, 128)</text>
<polyline fill="none" stroke="black" points="220,-23.5 303,-23.5 "/>
<text text-anchor="middle" x="261.5" y="-8.3" font-family="Times,serif" font-size="14.00">(None, 6)</text>
</g>
<!-- 140619145414584&#45;&gt;140619144962512 -->
<g id="edge8" class="edge"><title>140619145414584&#45;&gt;140619144962512</title>
<path fill="none" stroke="black" d="M183,-83.3664C183,-75.1516 183,-65.6579 183,-56.7252"/>
<polygon fill="black" stroke="black" points="186.5,-56.6068 183,-46.6068 179.5,-56.6069 186.5,-56.6068"/>
</g>
</g>
</svg>
