<?xml version="1.0" encoding="UTF-8" standalone="no"?>
<!DOCTYPE svg PUBLIC "-//W3C//DTD SVG 1.1//EN"
 "http://www.w3.org/Graphics/SVG/1.1/DTD/svg11.dtd">
<!-- Generated by graphviz version 2.38.0 (20140413.2041)
 -->
<!-- Title: G Pages: 1 -->
<svg width="304pt" height="553pt"
 viewBox="0.00 0.00 304.00 553.00" xmlns="http://www.w3.org/2000/svg" xmlns:xlink="http://www.w3.org/1999/xlink">
<g id="graph0" class="graph" transform="scale(1 1) rotate(0) translate(4 549)">
<title>G</title>
<polygon fill="white" stroke="none" points="-4,4 -4,-549 300,-549 300,4 -4,4"/>
<!-- 140618365138816 -->
<g id="node1" class="node"><title>140618365138816</title>
<polygon fill="none" stroke="black" points="2.5,-498.5 2.5,-544.5 293.5,-544.5 293.5,-498.5 2.5,-498.5"/>
<text text-anchor="middle" x="65" y="-517.8" font-family="Times,serif" font-size="14.00">input_2: InputLayer</text>
<polyline fill="none" stroke="black" points="127.5,-498.5 127.5,-544.5 "/>
<text text-anchor="middle" x="155" y="-529.3" font-family="Times,serif" font-size="14.00">input:</text>
<polyline fill="none" stroke="black" points="127.5,-521.5 182.5,-521.5 "/>
<text text-anchor="middle" x="155" y="-506.3" font-family="Times,serif" font-size="14.00">output:</text>
<polyline fill="none" stroke="black" points="182.5,-498.5 182.5,-544.5 "/>
<text text-anchor="middle" x="238" y="-529.3" font-family="Times,serif" font-size="14.00">(None, 60, 64, 8)</text>
<polyline fill="none" stroke="black" points="182.5,-521.5 293.5,-521.5 "/>
<text text-anchor="middle" x="238" y="-506.3" font-family="Times,serif" font-size="14.00">(None, 60, 64, 8)</text>
</g>
<!-- 140618365080240 -->
<g id="node2" class="node"><title>140618365080240</title>
<polygon fill="none" stroke="black" points="0,-415.5 0,-461.5 296,-461.5 296,-415.5 0,-415.5"/>
<text text-anchor="middle" x="61.5" y="-434.8" font-family="Times,serif" font-size="14.00">conv2d_4: Conv2D</text>
<polyline fill="none" stroke="black" points="123,-415.5 123,-461.5 "/>
<text text-anchor="middle" x="150.5" y="-446.3" font-family="Times,serif" font-size="14.00">input:</text>
<polyline fill="none" stroke="black" points="123,-438.5 178,-438.5 "/>
<text text-anchor="middle" x="150.5" y="-423.3" font-family="Times,serif" font-size="14.00">output:</text>
<polyline fill="none" stroke="black" points="178,-415.5 178,-461.5 "/>
<text text-anchor="middle" x="237" y="-446.3" font-family="Times,serif" font-size="14.00">(None, 60, 64, 8)</text>
<polyline fill="none" stroke="black" points="178,-438.5 296,-438.5 "/>
<text text-anchor="middle" x="237" y="-423.3" font-family="Times,serif" font-size="14.00">(None, 14, 15, 32)</text>
</g>
<!-- 140618365138816&#45;&gt;140618365080240 -->
<g id="edge1" class="edge"><title>140618365138816&#45;&gt;140618365080240</title>
<path fill="none" stroke="black" d="M148,-498.366C148,-490.152 148,-480.658 148,-471.725"/>
<polygon fill="black" stroke="black" points="151.5,-471.607 148,-461.607 144.5,-471.607 151.5,-471.607"/>
</g>
<!-- 140618365081640 -->
<g id="node3" class="node"><title>140618365081640</title>
<polygon fill="none" stroke="black" points="0,-332.5 0,-378.5 296,-378.5 296,-332.5 0,-332.5"/>
<text text-anchor="middle" x="61.5" y="-351.8" font-family="Times,serif" font-size="14.00">conv2d_5: Conv2D</text>
<polyline fill="none" stroke="black" points="123,-332.5 123,-378.5 "/>
<text text-anchor="middle" x="150.5" y="-363.3" font-family="Times,serif" font-size="14.00">input:</text>
<polyline fill="none" stroke="black" points="123,-355.5 178,-355.5 "/>
<text text-anchor="middle" x="150.5" y="-340.3" font-family="Times,serif" font-size="14.00">output:</text>
<polyline fill="none" stroke="black" points="178,-332.5 178,-378.5 "/>
<text text-anchor="middle" x="237" y="-363.3" font-family="Times,serif" font-size="14.00">(None, 14, 15, 32)</text>
<polyline fill="none" stroke="black" points="178,-355.5 296,-355.5 "/>
<text text-anchor="middle" x="237" y="-340.3" font-family="Times,serif" font-size="14.00">(None, 6, 6, 64)</text>
</g>
<!-- 140618365080240&#45;&gt;140618365081640 -->
<g id="edge2" class="edge"><title>140618365080240&#45;&gt;140618365081640</title>
<path fill="none" stroke="black" d="M148,-415.366C148,-407.152 148,-397.658 148,-388.725"/>
<polygon fill="black" stroke="black" points="151.5,-388.607 148,-378.607 144.5,-388.607 151.5,-388.607"/>
</g>
<!-- 140618365303496 -->
<g id="node4" class="node"><title>140618365303496</title>
<polygon fill="none" stroke="black" points="7,-249.5 7,-295.5 289,-295.5 289,-249.5 7,-249.5"/>
<text text-anchor="middle" x="68.5" y="-268.8" font-family="Times,serif" font-size="14.00">conv2d_6: Conv2D</text>
<polyline fill="none" stroke="black" points="130,-249.5 130,-295.5 "/>
<text text-anchor="middle" x="157.5" y="-280.3" font-family="Times,serif" font-size="14.00">input:</text>
<polyline fill="none" stroke="black" points="130,-272.5 185,-272.5 "/>
<text text-anchor="middle" x="157.5" y="-257.3" font-family="Times,serif" font-size="14.00">output:</text>
<polyline fill="none" stroke="black" points="185,-249.5 185,-295.5 "/>
<text text-anchor="middle" x="237" y="-280.3" font-family="Times,serif" font-size="14.00">(None, 6, 6, 64)</text>
<polyline fill="none" stroke="black" points="185,-272.5 289,-272.5 "/>
<text text-anchor="middle" x="237" y="-257.3" font-family="Times,serif" font-size="14.00">(None, 4, 4, 64)</text>
</g>
<!-- 140618365081640&#45;&gt;140618365303496 -->
<g id="edge3" class="edge"><title>140618365081640&#45;&gt;140618365303496</title>
<path fill="none" stroke="black" d="M148,-332.366C148,-324.152 148,-314.658 148,-305.725"/>
<polygon fill="black" stroke="black" points="151.5,-305.607 148,-295.607 144.5,-305.607 151.5,-305.607"/>
</g>
<!-- 140618364847048 -->
<g id="node5" class="node"><title>140618364847048</title>
<polygon fill="none" stroke="black" points="13.5,-166.5 13.5,-212.5 282.5,-212.5 282.5,-166.5 13.5,-166.5"/>
<text text-anchor="middle" x="68.5" y="-185.8" font-family="Times,serif" font-size="14.00">flatten_2: Flatten</text>
<polyline fill="none" stroke="black" points="123.5,-166.5 123.5,-212.5 "/>
<text text-anchor="middle" x="151" y="-197.3" font-family="Times,serif" font-size="14.00">input:</text>
<polyline fill="none" stroke="black" points="123.5,-189.5 178.5,-189.5 "/>
<text text-anchor="middle" x="151" y="-174.3" font-family="Times,serif" font-size="14.00">output:</text>
<polyline fill="none" stroke="black" points="178.5,-166.5 178.5,-212.5 "/>
<text text-anchor="middle" x="230.5" y="-197.3" font-family="Times,serif" font-size="14.00">(None, 4, 4, 64)</text>
<polyline fill="none" stroke="black" points="178.5,-189.5 282.5,-189.5 "/>
<text text-anchor="middle" x="230.5" y="-174.3" font-family="Times,serif" font-size="14.00">(None, 1024)</text>
</g>
<!-- 140618365303496&#45;&gt;140618364847048 -->
<g id="edge4" class="edge"><title>140618365303496&#45;&gt;140618364847048</title>
<path fill="none" stroke="black" d="M148,-249.366C148,-241.152 148,-231.658 148,-222.725"/>
<polygon fill="black" stroke="black" points="151.5,-222.607 148,-212.607 144.5,-222.607 151.5,-222.607"/>
</g>
<!-- 140618364973128 -->
<g id="node6" class="node"><title>140618364973128</title>
<polygon fill="none" stroke="black" points="25,-83.5 25,-129.5 271,-129.5 271,-83.5 25,-83.5"/>
<text text-anchor="middle" x="76" y="-102.8" font-family="Times,serif" font-size="14.00">dense_3: Dense</text>
<polyline fill="none" stroke="black" points="127,-83.5 127,-129.5 "/>
<text text-anchor="middle" x="154.5" y="-114.3" font-family="Times,serif" font-size="14.00">input:</text>
<polyline fill="none" stroke="black" points="127,-106.5 182,-106.5 "/>
<text text-anchor="middle" x="154.5" y="-91.3" font-family="Times,serif" font-size="14.00">output:</text>
<polyline fill="none" stroke="black" points="182,-83.5 182,-129.5 "/>
<text text-anchor="middle" x="226.5" y="-114.3" font-family="Times,serif" font-size="14.00">(None, 1024)</text>
<polyline fill="none" stroke="black" points="182,-106.5 271,-106.5 "/>
<text text-anchor="middle" x="226.5" y="-91.3" font-family="Times,serif" font-size="14.00">(None, 512)</text>
</g>
<!-- 140618364847048&#45;&gt;140618364973128 -->
<g id="edge5" class="edge"><title>140618364847048&#45;&gt;140618364973128</title>
<path fill="none" stroke="black" d="M148,-166.366C148,-158.152 148,-148.658 148,-139.725"/>
<polygon fill="black" stroke="black" points="151.5,-139.607 148,-129.607 144.5,-139.607 151.5,-139.607"/>
</g>
<!-- 140618364631472 -->
<g id="node7" class="node"><title>140618364631472</title>
<polygon fill="none" stroke="black" points="28,-0.5 28,-46.5 268,-46.5 268,-0.5 28,-0.5"/>
<text text-anchor="middle" x="79" y="-19.8" font-family="Times,serif" font-size="14.00">dense_4: Dense</text>
<polyline fill="none" stroke="black" points="130,-0.5 130,-46.5 "/>
<text text-anchor="middle" x="157.5" y="-31.3" font-family="Times,serif" font-size="14.00">input:</text>
<polyline fill="none" stroke="black" points="130,-23.5 185,-23.5 "/>
<text text-anchor="middle" x="157.5" y="-8.3" font-family="Times,serif" font-size="14.00">output:</text>
<polyline fill="none" stroke="black" points="185,-0.5 185,-46.5 "/>
<text text-anchor="middle" x="226.5" y="-31.3" font-family="Times,serif" font-size="14.00">(None, 512)</text>
<polyline fill="none" stroke="black" points="185,-23.5 268,-23.5 "/>
<text text-anchor="middle" x="226.5" y="-8.3" font-family="Times,serif" font-size="14.00">(None, 6)</text>
</g>
<!-- 140618364973128&#45;&gt;140618364631472 -->
<g id="edge6" class="edge"><title>140618364973128&#45;&gt;140618364631472</title>
<path fill="none" stroke="black" d="M148,-83.3664C148,-75.1516 148,-65.6579 148,-56.7252"/>
<polygon fill="black" stroke="black" points="151.5,-56.6068 148,-46.6068 144.5,-56.6069 151.5,-56.6068"/>
</g>
</g>
</svg>
