<?xml version="1.0" encoding="UTF-8" standalone="no"?>
<!DOCTYPE svg PUBLIC "-//W3C//DTD SVG 1.1//EN"
 "http://www.w3.org/Graphics/SVG/1.1/DTD/svg11.dtd">
<!-- Generated by graphviz version 2.38.0 (20140413.2041)
 -->
<!-- Title: G Pages: 1 -->
<svg width="304pt" height="470pt"
 viewBox="0.00 0.00 304.00 470.00" xmlns="http://www.w3.org/2000/svg" xmlns:xlink="http://www.w3.org/1999/xlink">
<g id="graph0" class="graph" transform="scale(1 1) rotate(0) translate(4 466)">
<title>G</title>
<polygon fill="white" stroke="none" points="-4,4 -4,-466 300,-466 300,4 -4,4"/>
<!-- 139649394711800 -->
<g id="node1" class="node"><title>139649394711800</title>
<polygon fill="none" stroke="black" points="2.5,-415.5 2.5,-461.5 293.5,-461.5 293.5,-415.5 2.5,-415.5"/>
<text text-anchor="middle" x="65" y="-434.8" font-family="Times,serif" font-size="14.00">input_2: InputLayer</text>
<polyline fill="none" stroke="black" points="127.5,-415.5 127.5,-461.5 "/>
<text text-anchor="middle" x="155" y="-446.3" font-family="Times,serif" font-size="14.00">input:</text>
<polyline fill="none" stroke="black" points="127.5,-438.5 182.5,-438.5 "/>
<text text-anchor="middle" x="155" y="-423.3" font-family="Times,serif" font-size="14.00">output:</text>
<polyline fill="none" stroke="black" points="182.5,-415.5 182.5,-461.5 "/>
<text text-anchor="middle" x="238" y="-446.3" font-family="Times,serif" font-size="14.00">(None, 60, 64, 8)</text>
<polyline fill="none" stroke="black" points="182.5,-438.5 293.5,-438.5 "/>
<text text-anchor="middle" x="238" y="-423.3" font-family="Times,serif" font-size="14.00">(None, 60, 64, 8)</text>
</g>
<!-- 139649394421712 -->
<g id="node2" class="node"><title>139649394421712</title>
<polygon fill="none" stroke="black" points="0,-332.5 0,-378.5 296,-378.5 296,-332.5 0,-332.5"/>
<text text-anchor="middle" x="61.5" y="-351.8" font-family="Times,serif" font-size="14.00">conv2d_4: Conv2D</text>
<polyline fill="none" stroke="black" points="123,-332.5 123,-378.5 "/>
<text text-anchor="middle" x="150.5" y="-363.3" font-family="Times,serif" font-size="14.00">input:</text>
<polyline fill="none" stroke="black" points="123,-355.5 178,-355.5 "/>
<text text-anchor="middle" x="150.5" y="-340.3" font-family="Times,serif" font-size="14.00">output:</text>
<polyline fill="none" stroke="black" points="178,-332.5 178,-378.5 "/>
<text text-anchor="middle" x="237" y="-363.3" font-family="Times,serif" font-size="14.00">(None, 60, 64, 8)</text>
<polyline fill="none" stroke="black" points="178,-355.5 296,-355.5 "/>
<text text-anchor="middle" x="237" y="-340.3" font-family="Times,serif" font-size="14.00">(None, 15, 16, 32)</text>
</g>
<!-- 139649394711800&#45;&gt;139649394421712 -->
<g id="edge1" class="edge"><title>139649394711800&#45;&gt;139649394421712</title>
<path fill="none" stroke="black" d="M148,-415.366C148,-407.152 148,-397.658 148,-388.725"/>
<polygon fill="black" stroke="black" points="151.5,-388.607 148,-378.607 144.5,-388.607 151.5,-388.607"/>
</g>
<!-- 139649394271008 -->
<g id="node3" class="node"><title>139649394271008</title>
<polygon fill="none" stroke="black" points="0,-249.5 0,-295.5 296,-295.5 296,-249.5 0,-249.5"/>
<text text-anchor="middle" x="61.5" y="-268.8" font-family="Times,serif" font-size="14.00">conv2d_5: Conv2D</text>
<polyline fill="none" stroke="black" points="123,-249.5 123,-295.5 "/>
<text text-anchor="middle" x="150.5" y="-280.3" font-family="Times,serif" font-size="14.00">input:</text>
<polyline fill="none" stroke="black" points="123,-272.5 178,-272.5 "/>
<text text-anchor="middle" x="150.5" y="-257.3" font-family="Times,serif" font-size="14.00">output:</text>
<polyline fill="none" stroke="black" points="178,-249.5 178,-295.5 "/>
<text text-anchor="middle" x="237" y="-280.3" font-family="Times,serif" font-size="14.00">(None, 15, 16, 32)</text>
<polyline fill="none" stroke="black" points="178,-272.5 296,-272.5 "/>
<text text-anchor="middle" x="237" y="-257.3" font-family="Times,serif" font-size="14.00">(None, 8, 8, 64)</text>
</g>
<!-- 139649394421712&#45;&gt;139649394271008 -->
<g id="edge2" class="edge"><title>139649394421712&#45;&gt;139649394271008</title>
<path fill="none" stroke="black" d="M148,-332.366C148,-324.152 148,-314.658 148,-305.725"/>
<polygon fill="black" stroke="black" points="151.5,-305.607 148,-295.607 144.5,-305.607 151.5,-305.607"/>
</g>
<!-- 139649393971096 -->
<g id="node4" class="node"><title>139649393971096</title>
<polygon fill="none" stroke="black" points="7,-166.5 7,-212.5 289,-212.5 289,-166.5 7,-166.5"/>
<text text-anchor="middle" x="68.5" y="-185.8" font-family="Times,serif" font-size="14.00">conv2d_6: Conv2D</text>
<polyline fill="none" stroke="black" points="130,-166.5 130,-212.5 "/>
<text text-anchor="middle" x="157.5" y="-197.3" font-family="Times,serif" font-size="14.00">input:</text>
<polyline fill="none" stroke="black" points="130,-189.5 185,-189.5 "/>
<text text-anchor="middle" x="157.5" y="-174.3" font-family="Times,serif" font-size="14.00">output:</text>
<polyline fill="none" stroke="black" points="185,-166.5 185,-212.5 "/>
<text text-anchor="middle" x="237" y="-197.3" font-family="Times,serif" font-size="14.00">(None, 8, 8, 64)</text>
<polyline fill="none" stroke="black" points="185,-189.5 289,-189.5 "/>
<text text-anchor="middle" x="237" y="-174.3" font-family="Times,serif" font-size="14.00">(None, 8, 8, 64)</text>
</g>
<!-- 139649394271008&#45;&gt;139649393971096 -->
<g id="edge3" class="edge"><title>139649394271008&#45;&gt;139649393971096</title>
<path fill="none" stroke="black" d="M148,-249.366C148,-241.152 148,-231.658 148,-222.725"/>
<polygon fill="black" stroke="black" points="151.5,-222.607 148,-212.607 144.5,-222.607 151.5,-222.607"/>
</g>
<!-- 139649394042584 -->
<g id="node5" class="node"><title>139649394042584</title>
<polygon fill="none" stroke="black" points="13.5,-83.5 13.5,-129.5 282.5,-129.5 282.5,-83.5 13.5,-83.5"/>
<text text-anchor="middle" x="68.5" y="-102.8" font-family="Times,serif" font-size="14.00">flatten_2: Flatten</text>
<polyline fill="none" stroke="black" points="123.5,-83.5 123.5,-129.5 "/>
<text text-anchor="middle" x="151" y="-114.3" font-family="Times,serif" font-size="14.00">input:</text>
<polyline fill="none" stroke="black" points="123.5,-106.5 178.5,-106.5 "/>
<text text-anchor="middle" x="151" y="-91.3" font-family="Times,serif" font-size="14.00">output:</text>
<polyline fill="none" stroke="black" points="178.5,-83.5 178.5,-129.5 "/>
<text text-anchor="middle" x="230.5" y="-114.3" font-family="Times,serif" font-size="14.00">(None, 8, 8, 64)</text>
<polyline fill="none" stroke="black" points="178.5,-106.5 282.5,-106.5 "/>
<text text-anchor="middle" x="230.5" y="-91.3" font-family="Times,serif" font-size="14.00">(None, 4096)</text>
</g>
<!-- 139649393971096&#45;&gt;139649394042584 -->
<g id="edge4" class="edge"><title>139649393971096&#45;&gt;139649394042584</title>
<path fill="none" stroke="black" d="M148,-166.366C148,-158.152 148,-148.658 148,-139.725"/>
<polygon fill="black" stroke="black" points="151.5,-139.607 148,-129.607 144.5,-139.607 151.5,-139.607"/>
</g>
<!-- 139649394177248 -->
<g id="node6" class="node"><title>139649394177248</title>
<polygon fill="none" stroke="black" points="25,-0.5 25,-46.5 271,-46.5 271,-0.5 25,-0.5"/>
<text text-anchor="middle" x="76" y="-19.8" font-family="Times,serif" font-size="14.00">dense_2: Dense</text>
<polyline fill="none" stroke="black" points="127,-0.5 127,-46.5 "/>
<text text-anchor="middle" x="154.5" y="-31.3" font-family="Times,serif" font-size="14.00">input:</text>
<polyline fill="none" stroke="black" points="127,-23.5 182,-23.5 "/>
<text text-anchor="middle" x="154.5" y="-8.3" font-family="Times,serif" font-size="14.00">output:</text>
<polyline fill="none" stroke="black" points="182,-0.5 182,-46.5 "/>
<text text-anchor="middle" x="226.5" y="-31.3" font-family="Times,serif" font-size="14.00">(None, 4096)</text>
<polyline fill="none" stroke="black" points="182,-23.5 271,-23.5 "/>
<text text-anchor="middle" x="226.5" y="-8.3" font-family="Times,serif" font-size="14.00">(None, 6)</text>
</g>
<!-- 139649394042584&#45;&gt;139649394177248 -->
<g id="edge5" class="edge"><title>139649394042584&#45;&gt;139649394177248</title>
<path fill="none" stroke="black" d="M148,-83.3664C148,-75.1516 148,-65.6579 148,-56.7252"/>
<polygon fill="black" stroke="black" points="151.5,-56.6068 148,-46.6068 144.5,-56.6069 151.5,-56.6068"/>
</g>
</g>
</svg>
